<svg width="54" height="54" fill="none" xmlns="http://www.w3.org/2000/svg"><circle cx="27" cy="27" r="27" fill="#000"/><path d="M21.823 39.984a2.5 2.5 0 0 1-1.833-.763 2.493 2.493 0 0 1-.761-1.831 2.5 2.5 0 0 1 .762-1.833 2.493 2.493 0 0 1 1.832-.762 2.5 2.5 0 0 1 1.833.763c.509.508.762 1.119.762 1.832a2.5 2.5 0 0 1-.763 1.832 2.493 2.493 0 0 1-1.832.762Zm12.972 0a2.5 2.5 0 0 1-1.833-.763 2.493 2.493 0 0 1-.761-1.831 2.5 2.5 0 0 1 .763-1.833 2.493 2.493 0 0 1 1.831-.762 2.5 2.5 0 0 1 1.833.763c.509.508.762 1.119.761 1.832a2.5 2.5 0 0 1-.762 1.832 2.494 2.494 0 0 1-1.832.762Zm-15.307-23.35h19.134c.497 0 .876.222 1.135.666.26.444.27.892.032 1.345l-4.605 8.302a2.596 2.596 0 0 1-.957 1.005c-.4.238-.838.357-1.313.357H23.25l-1.427 2.595H37.39v2.594H21.823c-.973 0-1.708-.427-2.205-1.282-.497-.854-.519-1.702-.065-2.545l1.751-3.178-4.67-9.859H14.04V14.04h4.216l1.232 2.594Z" fill="#fff"/></svg>