<svg width="64" height="64" fill="none" xmlns="http://www.w3.org/2000/svg"><circle cx="32" cy="32" r="32" fill="#000"/><path d="M25.864 47.388c-.845 0-1.57-.3-2.172-.904a2.955 2.955 0 0 1-.902-2.17c0-.846.301-1.57.904-2.173a2.955 2.955 0 0 1 2.17-.902c.846 0 1.57.301 2.173.904.603.602.903 1.326.902 2.17 0 .846-.301 1.57-.904 2.173a2.955 2.955 0 0 1-2.17.902Zm15.375 0c-.846 0-1.57-.3-2.173-.904a2.955 2.955 0 0 1-.902-2.17c0-.846.301-1.57.904-2.173a2.955 2.955 0 0 1 2.17-.902c.846 0 1.57.301 2.173.904.603.602.904 1.326.903 2.17 0 .846-.302 1.57-.904 2.173a2.955 2.955 0 0 1-2.171.902ZM23.097 19.715h22.677c.59 0 1.038.263 1.345.789.308.525.32 1.057.039 1.594l-5.458 9.84c-.282.512-.66.909-1.135 1.19a2.992 2.992 0 0 1-1.555.424H27.556l-1.692 3.075h18.45V39.7h-18.45c-1.152 0-2.024-.506-2.613-1.519-.59-1.012-.615-2.018-.077-3.016l2.076-3.767-5.535-11.684H16.64V16.64h4.997l1.46 3.075Z" fill="#fff"/></svg>