<svg width="74" height="74" fill="none" xmlns="http://www.w3.org/2000/svg"><circle cx="37" cy="37" r="37" fill="#000"/><path d="M29.906 54.793c-.978 0-1.815-.349-2.512-1.045-.697-.697-1.045-1.534-1.043-2.51 0-.978.348-1.815 1.045-2.512.697-.697 1.533-1.045 2.51-1.044.978 0 1.815.349 2.512 1.045.697.697 1.044 1.534 1.043 2.51 0 .978-.348 1.816-1.045 2.512-.697.697-1.534 1.045-2.51 1.044Zm17.776 0c-.977 0-1.815-.349-2.512-1.045-.696-.697-1.044-1.534-1.043-2.51 0-.978.348-1.815 1.045-2.512.697-.697 1.534-1.045 2.51-1.044.978 0 1.815.349 2.512 1.045.697.697 1.045 1.534 1.044 2.51 0 .978-.349 1.816-1.046 2.512-.697.697-1.533 1.045-2.51 1.044ZM26.706 22.795h26.22c.682 0 1.2.304 1.556.912.355.608.37 1.223.044 1.844l-6.31 11.377a3.558 3.558 0 0 1-1.312 1.377 3.459 3.459 0 0 1-1.8.49H31.862l-1.955 3.554h21.332v3.556H29.906c-1.333 0-2.34-.586-3.022-1.757-.682-1.17-.711-2.333-.089-3.487l2.4-4.356-6.4-13.51H19.24V19.24h5.777l1.69 3.555Z" fill="#fff"/></svg>