<svg width="82" height="82" fill="none" xmlns="http://www.w3.org/2000/svg"><circle cx="41" cy="41" r="41" fill="#000"/><path d="M33.139 60.717c-1.084 0-2.011-.387-2.784-1.159-.772-.772-1.157-1.7-1.156-2.781 0-1.084.386-2.011 1.159-2.784.772-.772 1.699-1.157 2.78-1.156 1.084 0 2.012.386 2.784 1.158.772.773 1.158 1.7 1.157 2.782 0 1.083-.387 2.011-1.159 2.783-.772.772-1.699 1.158-2.781 1.157Zm19.698 0c-1.083 0-2.011-.387-2.783-1.159-.773-.772-1.158-1.7-1.157-2.781 0-1.084.386-2.011 1.159-2.784.772-.772 1.699-1.157 2.781-1.156 1.083 0 2.011.386 2.783 1.158.773.773 1.158 1.7 1.157 2.782 0 1.083-.386 2.011-1.159 2.783-.772.772-1.699 1.158-2.78 1.157ZM29.593 25.26h29.055c.755 0 1.33.336 1.724 1.01.394.674.41 1.355.049 2.043L53.428 40.92a3.943 3.943 0 0 1-1.454 1.526 3.833 3.833 0 0 1-1.993.542H35.306l-2.167 3.94h23.638v3.94H33.139c-1.478 0-2.594-.65-3.349-1.947-.755-1.297-.788-2.585-.098-3.865l2.659-4.826-7.091-14.97h-3.94v-3.94h6.402l1.871 3.94Z" fill="#fff"/></svg>