<svg width="35" height="33" fill="none" xmlns="http://www.w3.org/2000/svg"><path d="m17.754 27.547-8.3 5c-.367.233-.75.333-1.15.3-.4-.034-.75-.167-1.05-.4a2.396 2.396 0 0 1-.7-.876c-.167-.35-.2-.742-.1-1.174l2.2-9.45-7.35-6.35c-.333-.3-.541-.642-.624-1.026a2.004 2.004 0 0 1 .074-1.124c.133-.367.333-.667.6-.9.267-.234.633-.383 1.1-.45l9.7-.85 3.75-8.9c.167-.4.425-.7.776-.9.35-.2.709-.3 1.074-.3.367 0 .725.1 1.074.3.35.2.608.5.776.9l3.75 8.9 9.7.85c.467.067.833.216 1.1.45.267.233.467.533.6.9a2 2 0 0 1 .076 1.126c-.083.384-.291.725-.626 1.024l-7.35 6.35 2.2 9.45c.1.433.067.825-.1 1.176-.167.35-.4.642-.7.874-.3.233-.65.366-1.05.4-.4.033-.783-.067-1.15-.3l-8.3-5Z" fill="#FFDE00"/></svg>