<svg width="27" height="25" fill="none" xmlns="http://www.w3.org/2000/svg"><path d="m13.5 20.887-6.302 3.796a1.38 1.38 0 0 1-.873.228 1.469 1.469 0 0 1-.798-.304 1.82 1.82 0 0 1-.531-.665c-.127-.266-.152-.563-.076-.891l1.67-7.175-5.58-4.82a1.45 1.45 0 0 1-.474-.78 1.521 1.521 0 0 1 .056-.853c.102-.279.254-.506.456-.684.202-.177.48-.29.835-.341l7.365-.646L12.095.995c.126-.303.323-.531.589-.683.266-.152.538-.228.815-.228.279 0 .55.076.816.228.265.152.461.38.589.683l2.847 6.757 7.365.646c.354.05.632.164.835.341.202.178.354.405.455.684.102.278.12.563.058.855a1.44 1.44 0 0 1-.475.777l-5.58 4.821 1.67 7.175c.076.329.05.627-.076.893a1.807 1.807 0 0 1-.532.663 1.469 1.469 0 0 1-.797.304 1.38 1.38 0 0 1-.873-.228l-6.302-3.796Z" fill="#FFDE00"/></svg>