<svg width="35" height="33" fill="none" xmlns="http://www.w3.org/2000/svg"><path d="m17.49 27.547-8.3 5c-.367.233-.75.333-1.15.3-.4-.034-.75-.167-1.05-.4a2.396 2.396 0 0 1-.7-.876c-.167-.35-.2-.742-.1-1.174l2.2-9.45-7.35-6.35c-.334-.3-.542-.642-.624-1.026a2.004 2.004 0 0 1 .074-1.124c.133-.367.333-.667.6-.9.266-.234.633-.383 1.1-.45l9.7-.85 3.75-8.9c.166-.4.425-.7.776-.9.35-.2.708-.3 1.073-.3.367 0 .725.1 1.075.3.349.2.608.5.776.9l3.75 8.9 9.7.85c.466.067.833.216 1.1.45.266.233.466.533.6.9a2 2 0 0 1 .075 1.126c-.082.384-.29.725-.625 1.024l-7.35 6.35 2.2 9.45c.1.433.066.825-.1 1.176-.167.35-.4.642-.7.874-.3.233-.65.366-1.05.4-.4.033-.784-.067-1.15-.3l-8.3-5Z" fill="#FFDE00"/></svg>